<?xml version="1.0" encoding="UTF-8" standalone="no"?>
<!-- Created with Inkscape (http://www.inkscape.org/) -->

<svg
   width="381.27774"
   height="381.48746"
   viewBox="0 0 100.87974 100.93522"
   version="1.1"
   id="svg1"
   xml:space="preserve"
   xmlns="http://www.w3.org/2000/svg"
   xmlns:svg="http://www.w3.org/2000/svg"><defs
     id="defs1" /><g
     id="layer1"
     transform="translate(0.03674441,0.06448855)"><path
       style="fill:#ffffff;fill-opacity:1"
       d="m 48.090061,100.50389 c -0.76389,-0.2057 -1.84698,-0.607705 -2.40687,-0.893335 -1.47451,-0.75224 -3.60529,-3.20898 -4.32151,-4.98259 l -0.61399,-1.52047 -0.0774,-16.45908 -0.0774,-16.45908 -16.45908,-0.0774 -16.4590702,-0.0774 -1.52047,-0.61399 c -1.86701,-0.75393 -4.24691,-2.87351 -5.08628,-4.52992 -2.03547,-4.01681 -1.21274,-8.57536 2.09296,-11.59659 0.83732,-0.76527 2.12891,-1.61103 2.99332,-1.96009 l 1.52047,-0.61399 16.4590702,-0.0774 16.45908,-0.0774 0.0774,-16.45908 0.0774,-16.4590796 0.61399,-1.52047 c 0.75393,-1.867008 2.87351,-4.24691 4.52992,-5.086277 4.01681,-2.035472 8.57536,-1.212743 11.59659,2.092958 0.76527,0.837328 1.61103,2.128918 1.96009,2.993319 l 0.61399,1.52047 0.0774,16.4590796 0.0774,16.45908 16.45908,0.0774 16.45908,0.0774 1.52047,0.61399 c 1.86701,0.75393 4.24691,2.87351 5.08627,4.52992 2.043449,4.03254 1.197689,8.58912 -2.16463,11.66209 -0.77296,0.70644 -2.08287,1.55588 -2.92164,1.89459 l -1.52047,0.61399 -16.45908,0.0774 -16.45908,0.0774 -0.0774,16.45908 -0.0774,16.45908 -0.60953,1.50855 c -1.16291,2.87812 -3.89464,5.23117 -6.89208,5.936695 -1.85372,0.43632 -2.70333,0.42703 -4.4706,-0.0488 z"
       id="path1" /></g></svg>
