<?xml version="1.0" encoding="UTF-8" standalone="no"?>
<!-- Created with Inkscape (http://www.inkscape.org/) -->

<svg
   width="102.63205mm"
   height="107.74168mm"
   viewBox="0 0 102.63205 107.74168"
   version="1.1"
   id="svg1"
   xml:space="preserve"
   sodipodi:docname="clear.svg"
   inkscape:version="1.3.2 (091e20ef0f, 2023-11-25)"
   xmlns:inkscape="http://www.inkscape.org/namespaces/inkscape"
   xmlns:sodipodi="http://sodipodi.sourceforge.net/DTD/sodipodi-0.dtd"
   xmlns="http://www.w3.org/2000/svg"
   xmlns:svg="http://www.w3.org/2000/svg"><sodipodi:namedview
     id="namedview1"
     pagecolor="#ffffff"
     bordercolor="#000000"
     borderopacity="0.25"
     inkscape:showpageshadow="2"
     inkscape:pageopacity="0.0"
     inkscape:pagecheckerboard="0"
     inkscape:deskcolor="#d1d1d1"
     inkscape:document-units="mm"
     inkscape:zoom="2.01369"
     inkscape:cx="194.1709"
     inkscape:cy="203.60632"
     inkscape:window-width="1920"
     inkscape:window-height="1024"
     inkscape:window-x="0"
     inkscape:window-y="32"
     inkscape:window-maximized="1"
     inkscape:current-layer="svg1" /><defs
     id="defs1" /><g
     id="layer1"
     transform="translate(-69.171564,-116.7629)"
     style="fill:#ffffff;fill-opacity:1"><path
       style="fill:#ffffff;fill-opacity:1"
       d="m 127.7501,223.62724 c -12.35948,-4.18832 -27.941803,-13.4314 -40.892044,-24.25625 -4.433531,-3.70589 -8.895299,-8.19271 -9.523925,-9.57738 -0.950087,-2.09276 -0.552498,-4.72161 0.985925,-6.51891 1.315388,-1.53673 2.39601,-2.08638 5.285914,-2.68864 8.111603,-1.69046 16.59789,-5.88355 22.58171,-11.15767 2.38005,-2.09777 6.73943,-6.5259 11.44168,-11.62213 4.84515,-5.25109 9.31557,-7.57445 15.59061,-8.10271 l 2.1379,-0.17998 6.85291,-13.22916 c 3.7691,-7.27605 7.26807,-13.83572 7.77549,-14.57705 2.18472,-3.19184 5.77041,-4.98423 9.9107,-4.95409 4.93998,0.036 8.85936,2.65342 11.01114,7.35352 1.00704,2.19967 1.1936,5.91395 0.41232,8.20887 -0.29725,0.87312 -3.74953,7.74835 -7.67173,15.27828 l -7.13127,13.69079 1.00192,1.9944 c 1.51607,3.01783 1.98577,5.21122 1.95317,9.1209 -0.0322,3.86307 -0.0918,4.0808 -3.9465,14.41979 -4.30797,11.55476 -7.25996,18.05875 -11.70849,25.79687 -4.78986,8.33186 -6.38184,10.30434 -9.15352,11.34137 -2.14012,0.80072 -3.78451,0.71966 -6.91391,-0.34082 z m 4.68706,-6.56878 c 1.12777,-0.88266 6.17969,-9.64158 9.45089,-16.3858 2.16153,-4.45642 5.71848,-12.8617 5.52391,-13.05334 -0.0782,-0.0771 -3.09432,-1.66606 -23.44114,-12.34977 l -8.54178,-4.48512 -2.17384,2.04918 c -5.80652,5.47353 -11.95355,9.36238 -19.411901,12.28071 -2.179035,0.85263 -7.768209,2.52143 -8.806762,2.62951 -0.434931,0.0453 6.457279,6.22755 9.957649,8.93198 l 2.127725,1.64391 1.42347,-0.86198 c 0.782908,-0.47409 1.977409,-1.28732 2.654449,-1.80719 1.49561,-1.14841 2.31976,-1.38114 3.60758,-1.01876 1.72467,0.48531 2.70206,1.66099 2.70206,3.25025 0,1.45548 -0.57102,2.36373 -2.37925,3.78435 l -1.59319,1.25168 0.86174,0.58131 c 2.07977,1.40296 8.15169,5.14721 9.68693,5.97344 l 1.68144,0.90492 1.71461,-1.85209 c 0.94304,-1.01864 2.62163,-3.20802 3.73021,-4.86527 2.13902,-3.1977 3.04891,-3.99568 4.55789,-3.99728 1.85232,-0.002 3.70004,1.68434 3.70004,3.37682 0,1.38107 -2.0653,4.78952 -5.21988,8.61454 -0.93916,1.13877 -1.66693,2.10261 -1.61728,2.14187 0.44598,0.35261 8.57888,3.54954 9.1017,3.57775 0.15408,0.008 0.47031,-0.13371 0.70273,-0.31562 z m 18.82069,-39.63782 c 0.93222,-2.68268 1.0501,-3.29657 1.03832,-5.40749 -0.0307,-5.4981 -2.54481,-9.03094 -8.69373,-12.21641 -4.39804,-2.27841 -6.05695,-2.80108 -8.97317,-2.82715 -5.01199,-0.0448 -8.7932,2.03806 -13.03256,7.17893 -0.51305,0.62216 -0.88624,1.17621 -0.8293,1.23122 0.37623,0.36352 28.99294,15.2146 29.19097,15.1491 0.13633,-0.0451 0.72109,-1.44378 1.29947,-3.1082 z m 6.61288,-34.37921 c 4.06134,-7.83926 6.62571,-13.08188 6.71143,-13.72092 0.37741,-2.81384 -1.89643,-5.32923 -4.81748,-5.32923 -1.27135,0 -2.87193,0.66163 -3.61231,1.4932 -0.3809,0.42782 -8.75869,16.39653 -12.22867,23.30879 l -1.22725,2.44471 3.11016,1.57549 c 1.71058,0.86652 3.58641,1.87605 4.16849,2.2434 0.58208,0.36734 1.11786,0.66866 1.19062,0.66959 0.0728,9.4e-4 3.09002,-5.70732 6.70501,-12.68503 z m -85.138662,30.56131 c -1.491764,-0.53142 -2.289746,-1.20372 -2.981563,-2.51196 -1.183611,-2.23824 -0.499237,-5.13159 1.568006,-6.62909 5.088895,-3.68638 11.091749,3.28241 6.729106,7.8119 -1.566565,1.62648 -3.278939,2.05466 -5.315549,1.32915 z m 14.801366,-15.99052 c -1.180786,-0.28495 -1.82166,-0.68972 -2.729904,-1.72415 -3.478793,-3.96213 0.558775,-10.01938 5.534693,-8.30328 2.228258,0.76849 3.540777,2.63002 3.514762,4.98494 -0.02639,2.38847 -1.39819,4.23036 -3.648378,4.89859 -1.42525,0.42326 -1.497498,0.42715 -2.671173,0.1439 z"
       id="path1" /></g></svg>
