<?xml version="1.0" encoding="UTF-8" standalone="no"?>
<!-- Created with Inkscape (http://www.inkscape.org/) -->

<svg
   width="104.2177mm"
   height="109.94757mm"
   viewBox="0 0 104.2177 109.94757"
   version="1.1"
   id="svg1"
   xml:space="preserve"
   sodipodi:docname="trash.svg"
   inkscape:version="1.3.2 (091e20ef0f, 2023-11-25)"
   xmlns:inkscape="http://www.inkscape.org/namespaces/inkscape"
   xmlns:sodipodi="http://sodipodi.sourceforge.net/DTD/sodipodi-0.dtd"
   xmlns="http://www.w3.org/2000/svg"
   xmlns:svg="http://www.w3.org/2000/svg"><sodipodi:namedview
     id="namedview1"
     pagecolor="#ffffff"
     bordercolor="#000000"
     borderopacity="0.25"
     inkscape:showpageshadow="2"
     inkscape:pageopacity="0.0"
     inkscape:pagecheckerboard="0"
     inkscape:deskcolor="#d1d1d1"
     inkscape:document-units="mm"
     inkscape:zoom="1.973289"
     inkscape:cx="197.13281"
     inkscape:cy="207.77494"
     inkscape:window-width="1920"
     inkscape:window-height="1024"
     inkscape:window-x="0"
     inkscape:window-y="32"
     inkscape:window-maximized="1"
     inkscape:current-layer="svg1" /><defs
     id="defs1" /><g
     id="layer1"
     transform="translate(-47.459748,-75.885565)"
     style="fill:#ffffff;fill-opacity:1"><path
       style="fill:#ffffff;fill-opacity:1"
       d="m 81.884217,185.65601 c -7.51263,-0.69754 -11.67788,-2.31362 -15.23007,-5.90913 -3.01726,-3.05405 -4.6397,-6.7488 -5.66443,-12.8995 -0.75999,-4.5617 -0.90995,-6.39987 -2.67301,-32.76535 l -1.565808,-23.41562 0.586808,-1.19025 c 0.7678,-1.55734 2.01606,-2.38163 3.60663,-2.38163 1.60581,0 2.92675,0.731 3.64901,2.01933 0.55077,0.98243 0.67336,2.38758 2.19056,25.1091 1.63023,24.41436 2.08614,29.73936 2.83082,33.06428 1.52332,6.80139 4.42553,9.1063 12.48105,9.9123 3.57668,0.35787 31.424553,0.35787 35.001233,0 8.05552,-0.806 10.95773,-3.11091 12.48105,-9.9123 0.74458,-3.32445 1.20053,-8.64905 2.829,-33.03706 1.7921,-26.83854 1.61491,-25.56181 3.69486,-26.62292 2.28,-1.16317 4.64353,-0.40348 5.75223,1.8489 l 0.58588,1.19025 -1.56338,23.41562 c -0.85986,12.87859 -1.69564,24.78484 -1.8573,26.45833 -0.68904,7.13296 -1.60622,11.18449 -3.34885,14.79324 -2.11287,4.37542 -5.8983,7.52665 -10.8064,8.99591 -4.44081,1.32939 -6.00397,1.42754 -23.81249,1.49518 -9.167823,0.0348 -17.793143,-0.0411 -19.167393,-0.16868 z m 8.18718,-84.38231 -39.819788,-0.13229 -0.96402,-0.59949 c -2.56577,-1.59554 -2.39915,-5.47149 0.30346,-7.05912 0.87821,-0.51591 1.44184,-0.55019 11.111598,-0.67577 9.00226,-0.11691 10.29443,-0.18613 11.11529,-0.5954 2.13764,-1.06579 3.26085,-2.65828 4.52536,-6.41606 1.93648,-5.754681 5.44622,-8.886331 10.83154,-9.664671 2.34544,-0.33899 22.972233,-0.3217 25.121563,0.021 0.94588,0.15084 2.4755,0.62535 3.39914,1.05446 3.64038,1.69128 5.52097,3.94982 7.07912,8.501821 1.23077,3.59559 2.18525,5.09671 3.92002,6.16505 l 1.3014,0.80146 10.34026,0.13229 c 9.82511,0.1257 10.38635,0.15937 11.26541,0.67577 1.53443,0.9014 2.18247,2.10834 2.06148,3.83945 -0.12066,1.72643 -0.8299,2.89006 -2.1406,3.51203 -1.1721,0.5562 -8.34387,0.60921 -59.451233,0.43942 z m 26.046053,-9.06198 c -0.62943,-2.04369 -2.00411,-5.63661 -2.37061,-6.19596 -0.23835,-0.36377 -0.9301,-0.88694 -1.53722,-1.16259 -1.02913,-0.46726 -1.88292,-0.50118 -12.613223,-0.50118 -10.78436,0 -11.57987,0.032 -12.62839,0.50797 -1.3401,0.60833 -1.94438,1.52475 -2.88498,4.3752 -0.38415,1.16416 -0.86386,2.44409 -1.06601,2.84427 l -0.36755,0.7276 h 16.82567 16.825673 z"
       id="path1" /></g></svg>
